<!DOCTYPE svg PUBLIC "-//W3C//DTD SVG 20010904//EN" "http://www.w3.org/TR/2001/REC-SVG-20010904/DTD/svg10.dtd">
<svg version="1.0" xmlns="http://www.w3.org/2000/svg" width="512px" height="512px" viewBox="0 0 5120 5120" preserveAspectRatio="xMidYMid meet">
<g id="layer101" fill="#040404" stroke="none">
 <path d="M3115 5030 c-3 -5 -25 -10 -47 -10 -51 0 -122 -33 -159 -74 -22 -24 -28 -41 -29 -73 0 -24 -4 -43 -10 -43 -5 0 -10 -13 -10 -29 0 -17 5 -33 10 -36 6 -3 10 -30 10 -58 0 -29 7 -65 15 -81 8 -15 15 -37 15 -47 0 -11 5 -19 10 -19 6 0 10 -7 10 -15 0 -8 4 -15 9 -15 5 0 12 -13 16 -29 3 -15 15 -38 25 -49 11 -12 20 -28 20 -37 0 -8 4 -15 9 -15 5 0 12 -13 16 -29 3 -15 15 -38 25 -49 11 -12 20 -28 20 -37 0 -8 4 -15 9 -15 5 0 12 -13 16 -30 4 -16 11 -30 16 -30 5 0 9 -7 9 -15 0 -8 5 -15 10 -15 6 0 10 -8 10 -17 0 -10 7 -27 15 -37 8 -11 15 -27 15 -36 0 -9 9 -25 20 -35 11 -10 20 -23 20 -30 0 -7 6 -25 14 -41 7 -16 20 -44 27 -61 8 -18 17 -33 21 -33 5 0 8 -9 8 -20 0 -11 5 -20 10 -20 6 0 10 -10 10 -23 0 -13 7 -32 15 -43 8 -10 15 -31 15 -46 0 -14 5 -28 11 -30 6 -2 15 -35 20 -73 12 -87 12 -98 3 -158 -6 -42 -13 -53 -47 -78 -40 -29 -92 -39 -99 -18 -2 6 -25 13 -51 16 -43 5 -47 4 -47 -16 0 -11 5 -21 10 -21 6 0 10 -7 10 -15 0 -9 6 -23 13 -31 37 -46 65 -74 75 -74 6 0 18 -8 28 -17 15 -16 38 -18 159 -18 121 0 144 2 159 18 10 9 22 17 27 17 19 0 78 72 95 116 13 34 16 66 12 149 -3 61 -10 111 -16 117 -7 7 -12 20 -12 30 0 10 -4 26 -9 36 -12 23 -37 80 -53 120 -7 17 -16 32 -20 32 -5 0 -8 9 -8 20 0 11 -4 20 -10 20 -5 0 -13 12 -16 27 -4 15 -16 36 -26 47 -10 11 -18 26 -18 33 0 7 -4 13 -10 13 -5 0 -10 5 -10 12 0 14 -96 156 -120 178 -10 8 -20 25 -24 38 -4 12 -12 22 -17 22 -5 0 -9 6 -9 14 0 8 -9 17 -19 21 -10 3 -22 17 -25 30 -4 14 -11 25 -16 25 -6 0 -10 7 -10 15 0 8 -4 15 -8 15 -5 0 -17 16 -28 35 -10 19 -22 35 -26 35 -5 0 -8 7 -8 16 0 9 -8 24 -18 33 -11 9 -22 28 -26 44 -3 15 -11 27 -16 27 -6 0 -10 27 -10 60 0 63 15 90 63 110 12 6 29 14 37 19 8 5 35 19 60 30 42 19 81 47 123 87 12 13 17 33 17 77 0 56 -1 59 -30 70 -16 6 -30 15 -30 19 0 12 -238 10 -245 -2z"/>
 <path d="M1313 4220 c-39 -4 -82 -15 -94 -24 -13 -9 -29 -16 -36 -16 -43 0 -210 -138 -233 -193 -6 -12 -14 -29 -19 -37 -5 -8 -16 -30 -23 -47 -7 -18 -16 -33 -19 -33 -4 0 -10 -31 -14 -70 -4 -38 -11 -70 -16 -70 -5 0 -9 -49 -9 -110 0 -60 4 -110 9 -110 5 0 12 -36 16 -80 4 -44 11 -83 16 -86 5 -3 9 -14 9 -25 0 -10 5 -19 10 -19 6 0 10 -13 10 -30 0 -16 4 -30 9 -30 5 0 11 -9 14 -20 4 -15 14 -20 41 -20 l36 0 0 69 c0 39 5 73 10 76 6 3 10 37 10 76 0 38 4 69 9 69 6 0 13 20 16 44 4 25 16 54 26 65 10 11 19 27 19 36 0 8 7 15 15 15 8 0 15 6 15 14 0 8 9 18 20 21 11 3 20 10 20 13 0 8 33 26 105 59 35 16 69 18 268 18 174 0 230 -3 236 -13 4 -7 31 -15 59 -19 29 -3 52 -9 52 -14 0 -4 17 -11 38 -14 20 -3 49 -13 64 -21 14 -8 35 -14 46 -14 11 0 27 -7 36 -15 8 -8 24 -15 35 -15 11 0 26 -7 35 -15 8 -8 18 -15 23 -15 12 0 216 -103 231 -117 7 -7 24 -16 38 -19 13 -3 24 -10 24 -15 0 -5 5 -9 10 -9 12 0 73 -41 78 -52 2 -5 12 -8 22 -8 9 0 23 -7 30 -15 7 -8 18 -15 24 -15 7 0 28 -14 46 -30 19 -17 54 -42 77 -56 24 -14 57 -37 73 -52 38 -36 41 -37 150 -120 52 -39 102 -77 110 -85 24 -23 163 -107 177 -107 7 0 13 -4 13 -8 0 -9 59 -32 82 -32 9 0 18 -4 20 -10 2 -5 26 -13 53 -16 28 -4 53 -12 57 -17 9 -15 235 -14 250 1 7 7 25 12 41 12 64 0 192 101 204 162 3 15 9 28 14 28 11 0 12 242 1 255 -4 6 -17 37 -27 70 -11 33 -28 69 -37 79 -10 11 -18 26 -18 33 0 15 -43 28 -65 19 -12 -4 -15 -29 -15 -136 0 -142 2 -137 -73 -212 -20 -21 -44 -38 -52 -38 -8 0 -15 -4 -15 -9 0 -5 -20 -12 -45 -15 -25 -4 -45 -11 -45 -17 0 -5 -40 -9 -90 -9 -51 0 -90 4 -90 10 0 5 -22 12 -50 16 -27 4 -50 10 -50 15 0 5 -7 9 -16 9 -17 0 -154 79 -233 134 -28 20 -53 36 -55 36 -6 0 -31 23 -135 120 -38 36 -85 79 -105 95 -20 17 -51 44 -70 60 -37 32 -84 72 -129 108 -15 12 -43 36 -61 52 -18 17 -43 37 -56 45 -33 22 -123 88 -137 100 -7 5 -17 10 -23 10 -5 0 -10 4 -10 9 0 9 -17 21 -80 53 -14 7 -29 18 -35 24 -12 14 -135 83 -215 121 -30 14 -56 29 -58 34 -2 5 -14 9 -27 9 -13 0 -30 7 -39 15 -8 8 -23 15 -33 15 -11 0 -28 7 -39 15 -10 8 -30 15 -44 15 -14 0 -38 7 -55 16 -28 14 -185 35 -255 32 -19 0 -67 -4 -107 -8z"/>
 <path d="M771 3161 c-8 -5 -45 -12 -83 -16 -37 -4 -71 -11 -74 -16 -3 -5 -13 -9 -22 -9 -9 0 -30 -7 -46 -15 -15 -8 -36 -15 -46 -15 -10 0 -25 -6 -32 -13 -7 -7 -29 -19 -48 -27 -44 -18 -51 -23 -116 -87 -29 -28 -55 -61 -59 -72 -3 -12 -11 -21 -16 -21 -5 0 -9 -7 -9 -15 0 -8 -10 -31 -22 -52 -21 -36 -23 -50 -23 -227 0 -143 3 -190 13 -194 6 -2 12 -12 12 -23 0 -10 5 -19 10 -19 6 0 10 -11 10 -25 0 -14 4 -25 9 -25 5 0 12 -13 16 -29 3 -15 15 -38 25 -49 11 -12 20 -24 20 -27 0 -11 53 -79 105 -133 79 -84 101 -105 140 -137 46 -37 71 -57 110 -91 17 -14 42 -30 58 -36 15 -5 27 -14 27 -18 0 -4 21 -21 48 -36 26 -15 53 -34 60 -41 7 -7 20 -13 28 -13 8 0 14 -3 14 -7 0 -15 323 -183 351 -183 10 0 19 -4 21 -8 4 -11 125 -69 161 -77 15 -4 27 -11 27 -16 0 -5 8 -9 18 -9 9 0 29 -6 43 -14 44 -23 147 -56 174 -56 21 0 25 5 25 29 0 39 -9 61 -26 61 -8 0 -31 9 -51 20 -21 11 -43 20 -50 20 -7 0 -13 4 -13 8 0 4 -17 14 -37 21 -21 8 -40 17 -43 21 -3 4 -30 20 -60 37 -30 16 -99 55 -153 86 -54 32 -104 57 -112 57 -8 0 -15 4 -15 9 0 5 -10 13 -22 17 -12 3 -28 13 -36 20 -7 8 -19 14 -27 14 -7 0 -15 7 -19 15 -3 8 -12 15 -21 15 -8 0 -15 4 -15 8 0 5 -19 22 -42 39 -24 17 -62 48 -85 70 -23 21 -53 47 -67 58 -14 11 -25 26 -26 33 0 6 -6 12 -13 12 -7 0 -37 34 -67 76 -30 42 -65 86 -76 99 -12 13 -24 35 -28 49 -3 14 -11 26 -16 26 -6 0 -10 7 -10 15 0 8 -8 29 -19 48 -10 18 -22 52 -26 75 -4 23 -11 44 -16 48 -12 7 -12 181 0 188 5 4 12 24 16 46 4 22 11 40 16 40 5 0 9 5 9 12 0 18 140 148 159 148 5 0 16 6 23 13 14 13 89 43 153 61 22 6 43 14 46 19 3 4 32 11 65 14 32 3 65 11 73 17 21 16 476 15 493 -1 6 -7 35 -13 62 -13 28 0 69 -5 91 -11 22 -6 64 -14 94 -19 29 -5 65 -13 80 -18 14 -6 52 -16 85 -23 32 -7 60 -19 63 -26 3 -7 11 -13 19 -13 8 0 14 -6 14 -14 0 -8 6 -16 14 -19 46 -18 74 -181 41 -243 -32 -63 -14 -94 55 -94 79 0 220 87 220 135 0 8 5 15 10 15 16 0 12 74 -6 109 -16 32 -105 131 -118 131 -4 0 -22 10 -39 23 -44 31 -65 43 -117 67 -25 12 -58 28 -73 35 -16 8 -33 15 -39 15 -5 0 -24 6 -41 14 -45 19 -110 36 -140 36 -14 0 -27 5 -29 10 -2 6 -28 13 -58 16 -30 3 -64 10 -75 15 -32 14 -130 30 -267 42 -69 7 -130 15 -134 20 -11 10 -486 9 -503 -2z"/>
 <path d="M1290 2880 c-8 -4 -36 -16 -62 -25 -27 -9 -48 -21 -48 -26 0 -5 -5 -9 -10 -9 -20 0 -146 -124 -156 -152 -3 -10 -10 -18 -15 -18 -5 0 -9 -5 -9 -10 0 -6 -9 -20 -19 -31 -11 -12 -22 -36 -26 -55 -3 -19 -10 -34 -15 -34 -6 0 -10 -18 -10 -39 0 -22 -4 -43 -10 -46 -6 -3 -10 -52 -10 -111 0 -63 4 -104 10 -104 6 0 10 -18 10 -40 0 -22 4 -40 10 -40 5 0 12 -16 16 -35 3 -19 10 -35 15 -35 5 0 9 -7 9 -15 0 -8 5 -15 10 -15 6 0 10 -7 10 -15 0 -8 5 -15 10 -15 6 0 10 -6 10 -13 0 -14 194 -207 209 -207 5 0 16 -6 23 -13 20 -21 137 -87 153 -87 7 0 20 -6 27 -14 8 -7 29 -17 46 -21 18 -3 32 -11 32 -16 0 -5 9 -9 19 -9 11 0 32 -5 48 -12 38 -16 124 -37 203 -49 36 -6 72 -13 80 -17 40 -16 317 -35 520 -34 256 0 723 37 807 63 17 5 56 12 85 15 29 3 70 10 90 16 26 8 41 8 50 0 7 -5 30 -13 51 -17 20 -4 37 -11 37 -16 0 -5 10 -9 23 -9 12 0 35 -7 51 -15 15 -8 35 -15 43 -15 8 0 29 -6 46 -14 50 -22 98 -36 123 -36 13 0 24 -4 24 -10 0 -5 16 -12 35 -16 19 -3 38 -10 41 -15 3 -5 13 -9 22 -9 9 0 28 -6 42 -13 14 -7 60 -24 103 -37 75 -24 88 -32 67 -45 -12 -8 -13 -62 -1 -69 5 -3 12 -18 16 -33 7 -30 23 -45 75 -71 68 -34 251 -13 282 33 4 5 28 10 52 9 39 -1 51 -7 86 -41 28 -29 40 -49 40 -70 0 -16 4 -33 9 -39 14 -14 26 -164 13 -164 -5 0 -12 7 -16 15 -4 10 -19 15 -49 15 -37 0 -45 -4 -61 -31 -20 -33 -17 -88 5 -115 15 -18 96 -18 114 0 8 7 16 33 18 57 3 36 5 40 11 21 5 -12 12 -22 17 -22 5 0 9 -7 9 -16 0 -8 6 -22 13 -29 31 -36 37 -45 28 -45 -5 0 -13 4 -16 10 -13 21 -67 11 -91 -17 -25 -29 -34 -103 -14 -103 6 0 10 -5 10 -11 0 -7 8 -18 18 -25 19 -15 62 -19 62 -5 0 5 9 11 20 14 11 3 20 14 20 24 0 10 5 24 10 29 8 8 7 19 -1 38 -18 38 -4 43 28 8 59 -63 115 -48 127 33 5 40 3 51 -17 71 -12 13 -28 24 -34 24 -7 0 -13 9 -13 19 0 11 -7 26 -15 35 -8 8 -15 30 -15 50 0 19 -4 38 -10 41 -6 4 -10 57 -10 126 0 73 -4 119 -10 119 -5 0 -10 17 -10 38 0 20 -8 49 -18 65 -22 33 -58 67 -70 67 -5 0 -19 8 -30 19 -23 19 -31 81 -12 81 6 0 10 43 10 110 0 67 -4 110 -10 110 -5 0 -10 14 -10 32 0 32 -46 138 -60 138 -5 0 -11 13 -15 28 -3 15 -15 34 -25 42 -11 8 -20 20 -20 26 0 7 -7 14 -15 18 -8 3 -15 12 -15 21 0 8 -4 15 -9 15 -5 0 -24 14 -43 30 -87 79 -114 100 -129 100 -9 0 -19 7 -23 15 -3 8 -15 15 -26 15 -11 0 -20 4 -20 10 0 5 -12 13 -27 16 -16 4 -37 13 -48 19 -11 7 -37 16 -57 19 -21 4 -38 11 -38 15 0 5 -23 11 -52 14 -28 4 -54 11 -58 17 -3 5 -42 13 -86 16 -43 4 -85 11 -92 17 -7 5 -94 11 -197 12 l-185 2 -52 74 c-73 105 -119 149 -157 149 -26 0 -31 -4 -31 -24 0 -14 5 -28 10 -31 6 -3 10 -15 10 -26 0 -10 5 -19 10 -19 6 0 10 -6 10 -13 0 -7 18 -36 40 -66 22 -29 40 -59 40 -67 0 -8 5 -14 10 -14 6 0 10 -7 10 -15 0 -8 4 -15 8 -15 4 0 13 -12 19 -27 13 -31 44 -85 54 -93 3 -3 14 -22 24 -42 9 -21 21 -38 26 -38 5 0 9 -7 9 -15 0 -8 5 -15 10 -15 6 0 10 -6 10 -13 0 -7 12 -30 26 -50 29 -44 26 -57 -8 -33 -12 9 -30 16 -39 16 -10 0 -19 4 -21 8 -1 5 -43 28 -93 53 -49 24 -91 47 -93 52 -2 4 -8 7 -14 7 -15 0 -100 42 -116 58 -7 6 -20 12 -28 12 -9 0 -22 7 -30 15 -9 8 -24 15 -33 15 -10 0 -24 7 -31 15 -7 8 -21 15 -31 15 -11 0 -19 3 -19 8 0 8 -91 52 -107 52 -6 0 -20 9 -33 20 -13 11 -29 20 -37 20 -7 0 -13 5 -13 10 0 6 -8 10 -19 10 -15 0 -19 11 -24 66 -8 78 -25 133 -49 155 -10 9 -18 23 -18 31 0 24 -43 66 -70 70 -20 2 -26 -2 -28 -19 -2 -13 1 -23 7 -23 6 0 11 -8 11 -18 0 -10 5 -23 12 -30 15 -15 15 -145 -1 -150 -6 -2 -11 -12 -11 -23 0 -10 -4 -19 -10 -19 -5 0 -10 -5 -10 -10 0 -12 -13 -29 -47 -63 -36 -36 -47 -44 -85 -56 -20 -7 -38 -17 -41 -24 -5 -16 -259 -16 -264 0 -3 7 -21 17 -41 24 -40 13 -48 19 -97 67 -38 37 -61 41 -70 11 -7 -22 14 -109 27 -109 4 0 8 -4 8 -10 0 -9 33 -52 55 -72 41 -35 62 -49 82 -54 13 -4 23 -10 23 -14 0 -5 15 -12 33 -15 17 -4 35 -12 39 -18 9 -15 281 -14 286 1 2 6 19 14 38 18 19 3 34 10 34 14 0 27 119 27 128 1 2 -6 14 -11 27 -11 13 0 30 -7 39 -15 8 -8 24 -15 35 -15 11 0 26 -6 33 -14 8 -7 29 -17 46 -21 18 -3 32 -10 32 -15 0 -4 12 -11 28 -14 15 -4 42 -13 59 -22 18 -8 49 -21 68 -29 19 -8 51 -22 70 -30 19 -8 50 -21 68 -29 17 -9 44 -18 60 -22 15 -3 27 -10 27 -14 0 -4 16 -11 35 -14 19 -4 35 -11 35 -15 0 -5 16 -12 35 -15 19 -4 35 -11 35 -15 0 -5 16 -12 35 -15 19 -4 35 -11 35 -16 0 -4 15 -11 33 -15 17 -4 41 -13 52 -19 11 -7 32 -16 48 -20 37 -9 35 -24 -3 -18 -16 2 -30 8 -30 13 0 4 -17 11 -37 15 -21 4 -44 14 -52 22 -12 12 -36 14 -125 9 -60 -3 -112 -10 -115 -15 -3 -5 -62 -12 -130 -16 -69 -3 -127 -10 -130 -15 -7 -10 -142 -18 -465 -27 -225 -6 -496 9 -496 27 0 5 -27 11 -60 15 -33 4 -60 10 -60 15 0 4 -17 11 -37 15 -21 4 -47 13 -58 20 -11 8 -25 14 -32 14 -7 0 -35 14 -63 30 -28 17 -57 30 -65 30 -8 0 -15 3 -15 8 0 4 -15 15 -33 25 -18 10 -45 28 -59 40 -15 12 -43 36 -64 52 -21 17 -47 41 -58 54 -12 13 -27 29 -33 37 -7 7 -13 17 -13 22 0 6 -7 12 -15 16 -8 3 -15 12 -15 21 0 8 -4 15 -10 15 -5 0 -10 7 -10 15 0 8 -4 15 -10 15 -5 0 -10 11 -10 24 0 13 -5 26 -11 28 -6 2 -13 26 -16 53 -2 28 -9 59 -15 71 -16 33 9 295 31 317 6 6 11 24 11 39 0 15 3 28 8 28 9 0 28 45 37 88 4 17 11 32 16 32 5 0 9 16 9 35 0 33 -2 35 -32 34 -18 0 -40 -4 -48 -9z m1450 -610 c0 -5 11 -12 25 -16 14 -3 25 -10 25 -15 0 -5 5 -9 11 -9 14 0 117 -49 123 -59 6 -10 -47 -1 -54 9 -4 6 -66 36 -110 55 -34 14 -59 32 -53 38 10 10 33 8 33 -3z m1005 -60 c6 -5 38 -12 73 -16 34 -3 65 -10 67 -15 3 -4 26 -11 50 -15 25 -3 45 -10 45 -14 0 -4 12 -11 28 -14 26 -6 80 -29 112 -47 8 -5 25 -13 38 -19 12 -5 35 -21 50 -35 15 -14 32 -25 39 -25 7 0 13 -6 13 -12 0 -7 16 -24 35 -38 19 -14 35 -31 35 -38 0 -7 7 -15 15 -18 8 -4 15 -10 15 -15 0 -6 9 -19 20 -31 11 -12 20 -29 20 -37 0 -9 7 -29 15 -45 8 -15 15 -48 15 -72 0 -23 5 -46 10 -49 15 -9 12 -65 -4 -71 -8 -3 -62 22 -120 55 -58 34 -109 61 -114 61 -6 0 -12 7 -16 15 -3 8 -12 15 -21 15 -8 0 -15 4 -15 8 0 4 -12 13 -27 20 -28 12 -40 19 -118 68 -22 13 -60 34 -85 47 -25 12 -51 28 -58 35 -7 6 -19 12 -27 12 -7 0 -15 7 -19 15 -3 8 -12 15 -21 15 -8 0 -15 4 -15 9 0 5 -12 14 -27 20 -16 6 -41 20 -58 31 -16 11 -38 23 -47 26 -10 4 -18 10 -18 16 0 5 -9 18 -20 30 -11 12 -20 28 -20 35 0 7 -4 13 -10 13 -5 0 -17 16 -26 35 -9 19 -20 35 -25 35 -5 0 -9 6 -9 13 0 10 25 12 108 9 59 -2 112 -8 117 -12z m-1045 -31 c0 -4 16 -11 35 -15 19 -3 35 -10 35 -14 0 -5 10 -12 23 -16 12 -4 49 -19 82 -34 33 -16 70 -31 83 -35 12 -3 22 -11 22 -16 0 -5 7 -9 15 -9 8 0 41 -13 72 -29 122 -61 144 -71 158 -71 8 0 15 -4 15 -10 0 -13 -15 -13 -38 -1 -18 10 -103 48 -137 62 -11 4 -55 24 -99 43 -43 20 -89 39 -102 42 -13 3 -24 10 -24 14 0 4 -16 11 -35 14 -19 4 -35 11 -35 15 0 5 -16 12 -35 15 -19 4 -35 11 -35 16 0 6 -9 10 -20 10 -13 0 -20 7 -20 19 0 14 5 18 20 14 11 -3 20 -9 20 -14z m297 -40 c23 -11 45 -24 48 -29 8 -13 -38 2 -53 17 -7 7 -22 13 -33 13 -10 0 -19 5 -19 10 0 14 8 13 57 -11z m97 -45 c23 -9 20 -23 -4 -17 -11 3 -20 9 -20 14 0 11 3 11 24 3z m71 -35 c11 -17 2 -18 -19 -3 -17 12 -17 14 -4 14 9 0 20 -5 23 -11z m61 -34 c10 -8 15 -14 9 -14 -5 0 -19 6 -29 14 -11 8 -15 15 -10 15 6 0 19 -7 30 -15z m64 -25 c8 -5 11 -12 7 -16 -4 -4 -15 0 -24 9 -18 18 -8 23 17 7z m39 -106 c9 -9 -5 -12 -31 -7 -16 3 -28 10 -28 15 0 9 49 3 59 -8z m355 -240 c9 -3 16 -11 16 -16 0 -7 -4 -7 -12 0 -7 5 -22 12 -33 15 -15 3 -16 5 -3 6 9 0 23 -2 32 -5z"/>
 <path d="M5103 2462 c-13 -8 -6 -52 8 -52 5 0 9 14 9 30 0 33 0 33 -17 22z"/>
 <path d="M4870 1403 c-26 -11 -39 -37 -40 -79 0 -54 28 -84 78 -84 41 0 62 14 62 42 0 10 5 18 10 18 24 0 -2 82 -32 101 -15 10 -55 10 -78 2z"/>
 <path d="M2262 1388 c-19 -19 -16 -280 4 -326 28 -66 29 -67 79 -70 54 -4 74 11 110 83 27 54 134 160 170 169 16 4 33 12 36 18 4 6 42 11 86 12 63 1 83 -3 97 -17 10 -9 22 -17 27 -17 12 0 23 -9 100 -81 32 -30 59 -61 59 -67 0 -7 5 -12 10 -12 6 0 10 -7 10 -15 0 -8 5 -15 10 -15 6 0 10 -7 10 -15 0 -8 4 -15 9 -15 5 0 12 -15 16 -32 9 -43 28 -88 37 -88 5 0 8 -52 8 -115 0 -63 -4 -115 -8 -115 -5 0 -17 -16 -28 -35 -10 -19 -21 -35 -24 -35 -4 0 -15 -8 -26 -18 -37 -33 -69 -49 -116 -56 -26 -4 -50 -11 -53 -17 -8 -12 -295 -12 -295 0 0 5 -15 12 -32 16 -18 3 -42 10 -53 15 -11 5 -46 20 -77 34 -32 14 -58 30 -58 36 0 5 -7 10 -15 10 -8 0 -23 8 -34 18 -10 9 -33 28 -51 42 -42 31 -150 139 -150 149 0 4 -11 18 -25 31 -14 13 -25 29 -25 36 0 7 -3 14 -7 16 -11 4 -63 86 -63 98 0 5 -4 10 -10 10 -5 0 -17 16 -26 35 -9 19 -20 35 -25 35 -5 0 -9 9 -9 20 0 11 -4 20 -8 20 -5 0 -17 18 -27 40 -10 22 -22 40 -27 40 -4 0 -8 4 -8 10 0 20 -44 60 -67 60 -20 0 -23 -5 -23 -43 0 -43 18 -97 33 -97 4 0 7 -9 7 -20 0 -11 4 -28 10 -38 5 -9 17 -34 26 -54 9 -21 20 -38 25 -38 5 0 9 -11 9 -25 0 -14 4 -25 9 -25 5 0 15 -16 21 -36 7 -19 18 -38 26 -41 8 -3 14 -12 14 -20 0 -8 11 -29 25 -47 14 -18 25 -36 25 -39 0 -3 10 -17 23 -31 29 -32 47 -54 47 -59 0 -6 59 -74 103 -119 20 -21 37 -43 37 -48 0 -6 4 -10 8 -10 5 0 22 -12 38 -26 16 -14 47 -38 69 -52 22 -15 49 -35 59 -44 11 -10 39 -25 63 -34 24 -9 43 -20 43 -24 0 -4 16 -11 35 -14 19 -4 35 -11 35 -15 0 -5 25 -12 55 -16 30 -3 55 -11 55 -16 0 -12 377 -12 384 0 3 5 23 12 43 15 47 9 123 38 123 49 0 4 8 7 19 7 30 0 106 80 145 153 34 65 36 73 36 165 0 87 -14 159 -33 178 -4 4 -7 20 -7 36 0 15 -4 28 -10 28 -5 0 -10 5 -10 11 0 21 -41 100 -55 106 -8 3 -15 13 -15 23 0 10 -7 25 -15 34 -8 8 -15 19 -15 25 0 5 -9 13 -20 16 -11 3 -20 12 -20 19 0 17 -43 66 -58 66 -7 0 -12 5 -12 12 0 11 -21 32 -77 76 -13 9 -38 29 -55 44 -18 15 -45 30 -60 33 -16 4 -28 10 -28 14 0 9 -82 30 -148 38 -27 3 -57 -1 -82 -11 -22 -9 -54 -16 -70 -16 -16 0 -31 -4 -34 -9 -3 -5 -18 -12 -33 -15 -29 -7 -94 -37 -103 -47 -3 -3 -19 -13 -37 -21 -35 -17 -37 -16 -63 35 -7 15 -17 27 -22 27 -4 0 -8 8 -8 18 0 22 -19 42 -40 42 -9 0 -21 -5 -28 -12z"/>
 <path d="M4872 1171 c-17 -14 -22 -30 -22 -65 0 -25 4 -46 9 -46 4 0 21 -12 36 -26 25 -23 27 -27 12 -36 -12 -6 -17 -22 -17 -54 0 -69 12 -84 68 -84 59 0 82 23 82 79 0 33 -6 44 -37 70 l-38 31 23 16 c29 20 30 81 2 112 -26 28 -88 30 -118 3z"/>
 <path d="M4523 1097 c-16 -16 -23 -34 -23 -62 1 -59 18 -75 77 -75 43 0 53 4 67 25 18 27 22 85 6 85 -5 0 -10 5 -10 11 0 41 -81 52 -117 16z"/>
 </g>

</svg>