<!DOCTYPE svg PUBLIC "-//W3C//DTD SVG 20010904//EN" "http://www.w3.org/TR/2001/REC-SVG-20010904/DTD/svg10.dtd">
<svg version="1.0" xmlns="http://www.w3.org/2000/svg" width="1200px" height="310px" viewBox="0 0 12000 3100" preserveAspectRatio="xMidYMid meet">
<g id="layer101" fill="#000000" stroke="none">
 <path d="M1535 3035 c-47 -17 -71 -46 -79 -96 -11 -66 18 -178 71 -277 18 -35 33 -68 33 -72 0 -5 18 -48 40 -95 22 -47 40 -90 40 -94 0 -4 16 -48 35 -97 27 -70 35 -103 35 -155 0 -85 -17 -105 -85 -95 -56 9 -59 -4 -12 -66 33 -43 33 -43 112 -46 72 -2 83 0 108 22 67 58 63 210 -9 363 -19 39 -34 75 -34 80 0 6 -18 38 -40 72 -22 34 -40 64 -40 67 0 3 -13 24 -28 47 -55 81 -102 179 -102 212 0 34 36 75 66 75 7 0 29 16 49 35 28 28 35 44 35 73 0 21 -5 43 -12 50 -16 16 -133 15 -183 -3z"/>
 <path d="M8740 2618 c1 -7 7 -24 15 -38 35 -62 4 -165 -67 -222 -116 -92 -342 -156 -508 -145 -117 8 -265 41 -345 77 -37 16 -71 30 -77 30 -6 0 -43 15 -82 34 -40 18 -83 37 -97 41 -13 4 -64 24 -114 45 -270 114 -448 128 -663 53 -214 -75 -383 -292 -418 -532 -16 -117 -17 -210 -3 -302 17 -111 43 -127 -248 149 -135 128 -176 161 -288 236 -45 30 -56 45 -117 165 -37 73 -79 148 -93 166 -14 19 -25 38 -25 42 0 17 -96 122 -135 149 -62 42 -99 54 -167 54 -66 0 -86 -9 -140 -58 -54 -49 -50 -171 8 -246 32 -42 174 -146 200 -146 6 0 40 -13 75 -29 36 -16 90 -37 121 -46 49 -14 60 -22 82 -60 14 -24 31 -56 36 -71 10 -26 10 -27 -7 -13 -35 30 -91 57 -132 64 -103 17 -158 -45 -148 -170 5 -68 5 -69 -11 -45 -21 31 -118 125 -172 167 -103 80 -245 65 -264 -28 -9 -47 39 -150 134 -289 54 -79 130 -210 130 -224 0 -14 -4 -15 -32 -3 -54 23 -111 66 -149 113 -36 43 -129 193 -129 208 0 4 -18 38 -40 76 -22 38 -40 74 -40 80 0 13 -47 79 -69 98 -11 9 -32 11 -66 7 -42 -6 -55 -3 -77 14 -30 24 -53 27 -45 7 5 -11 -4 -10 -36 5 -30 13 -65 19 -127 19 -160 0 -278 -64 -320 -178 -22 -56 -22 -61 -9 -223 12 -167 12 -167 -14 -212 -35 -59 -52 -65 -77 -24 -11 17 -20 38 -20 45 0 7 -13 39 -30 71 -16 33 -38 81 -48 108 -53 139 -179 247 -378 326 -280 112 -610 117 -809 14 -141 -73 -265 -247 -287 -400 -12 -82 -4 -303 12 -360 69 -237 281 -460 507 -534 107 -35 271 -43 378 -18 75 18 76 18 90 -2 25 -36 137 -108 211 -136 109 -42 196 -57 339 -56 130 0 211 12 295 43 25 10 59 22 77 27 18 5 35 14 38 19 4 6 13 7 24 1 9 -5 64 -22 122 -37 147 -39 295 -39 428 -1 102 29 122 40 104 58 -8 8 -29 4 -77 -15 -61 -24 -77 -27 -213 -27 -152 0 -209 10 -281 49 -34 18 -34 18 -5 37 54 35 123 115 154 180 29 62 31 71 27 153 -4 70 -10 98 -32 141 -28 54 -101 141 -118 141 -5 0 -28 13 -51 29 -46 31 -94 49 -207 77 -41 10 -76 19 -78 20 -2 1 19 30 46 63 27 34 54 78 60 100 7 21 12 101 12 177 1 163 8 206 47 246 53 57 121 72 191 43 70 -30 122 -102 122 -168 0 -35 -43 -164 -61 -181 -14 -15 -11 -46 4 -46 31 0 84 94 94 165 5 40 7 43 18 28 11 -16 96 -173 133 -248 9 -16 31 -53 49 -82 18 -29 33 -55 33 -59 0 -4 18 -33 40 -65 22 -32 40 -62 40 -66 0 -5 18 -34 40 -66 22 -31 40 -60 40 -64 0 -3 14 -24 31 -47 17 -23 56 -78 88 -123 61 -86 220 -273 233 -273 4 0 20 -12 35 -26 59 -55 155 -72 193 -34 47 47 6 203 -89 335 -104 144 -336 354 -464 420 -22 11 -44 32 -49 45 -9 24 -8 24 24 -6 53 -49 149 -94 201 -94 66 0 100 31 100 91 0 24 -7 60 -16 79 -26 55 -86 163 -102 180 -7 8 -20 26 -27 40 -8 14 -39 64 -71 112 -59 90 -64 103 -47 113 27 17 170 -104 297 -251 23 -27 60 -69 82 -94 22 -25 41 -49 41 -55 0 -5 24 -50 54 -100 53 -90 53 -90 117 -89 55 1 66 -2 82 -22 20 -26 57 -33 57 -11 0 7 -13 34 -29 59 -16 25 -40 68 -54 94 -13 27 -41 81 -62 119 -139 257 -161 315 -134 342 31 31 178 -65 223 -147 14 -25 42 -74 61 -110 20 -36 58 -103 86 -150 27 -47 55 -99 63 -115 26 -55 49 -69 106 -62 44 5 53 3 75 -18 24 -24 55 -33 55 -16 0 4 -26 57 -57 117 -31 60 -71 136 -87 169 -17 33 -43 79 -58 102 -16 24 -28 45 -28 48 0 4 -15 27 -32 52 -18 25 -42 60 -53 79 -11 18 -31 48 -45 66 -25 33 -25 33 10 8 30 -21 170 -150 410 -376 30 -28 70 -64 88 -79 28 -24 92 -131 92 -156 0 -4 24 -43 52 -85 162 -235 419 -399 669 -425 106 -11 316 -6 463 12 80 9 80 9 170 -35 130 -64 255 -114 312 -126 27 -5 78 -17 114 -25 36 -8 115 -14 175 -15 95 0 117 3 161 24 58 27 64 37 64 109 0 68 -26 110 -87 141 -85 43 -149 56 -269 56 -97 0 -306 -20 -369 -36 -21 -5 -37 7 -155 121 -154 148 -243 261 -323 413 -74 140 -109 319 -72 368 13 18 14 16 15 -22 1 -202 172 -474 359 -574 76 -40 239 -52 306 -21 33 15 43 26 58 67 34 96 15 256 -44 363 -40 74 -46 82 -85 129 -131 154 -247 223 -404 241 -54 6 -54 6 -25 26 22 15 46 20 90 20 51 -1 72 -7 135 -41 96 -52 160 -108 263 -229 21 -25 27 -28 41 -16 20 17 20 27 -1 49 -10 10 -40 44 -67 76 -47 56 -182 166 -203 166 -5 0 -25 8 -44 17 -20 10 -67 19 -115 21 -95 5 -130 -9 -214 -85 -175 -158 -190 -185 -197 -351 -3 -64 -1 -149 5 -187 12 -87 74 -221 147 -320 60 -80 208 -225 254 -249 17 -9 31 -21 31 -25 0 -15 -141 -26 -320 -26 -148 0 -175 3 -263 27 -285 79 -545 323 -637 598 -41 122 -53 206 -48 329 13 267 152 490 373 597 91 44 97 45 212 51 190 9 263 -8 526 -123 43 -19 84 -34 91 -34 7 0 34 -11 62 -24 70 -34 278 -104 360 -121 88 -19 271 -19 367 -1 73 14 177 50 245 84 54 26 123 93 143 137 36 79 16 225 -30 225 -12 0 -21 -6 -21 -12z m-3419 -128 c71 -43 124 -105 211 -243 24 -38 51 -82 62 -99 19 -29 19 -29 -20 -13 -22 10 -57 23 -80 30 -58 19 -181 82 -235 121 -50 36 -99 115 -99 160 0 15 10 38 22 51 30 32 79 30 139 -7z m-2182 -500 c114 -16 227 -59 299 -114 51 -38 137 -142 176 -212 25 -45 46 -87 46 -93 0 -5 18 -49 40 -96 22 -47 40 -91 40 -96 0 -5 14 -37 31 -70 30 -61 30 -61 -3 -36 -24 18 -37 40 -46 73 -64 239 -243 436 -452 498 -69 21 -233 21 -310 1 -74 -19 -173 -75 -228 -128 -47 -46 -136 -186 -148 -231 -6 -25 -5 -28 10 -23 10 4 21 7 25 7 5 0 17 21 28 48 33 76 106 166 175 214 86 59 153 81 269 86 133 6 250 -28 347 -102 88 -65 197 -230 225 -339 15 -58 15 -58 -16 -50 -18 4 -68 8 -112 8 -108 0 -161 -21 -203 -80 -50 -71 -62 -121 -62 -254 0 -127 9 -169 55 -241 14 -23 24 -44 21 -47 -10 -10 -152 -33 -201 -32 -186 1 -357 85 -503 244 -113 123 -182 271 -202 433 -18 141 24 309 105 419 114 155 368 246 594 213z m4530 -34 c152 -66 336 -291 376 -460 27 -118 7 -193 -57 -215 -111 -39 -264 40 -386 199 -57 75 -119 201 -131 270 -7 36 -14 73 -16 82 -6 35 15 113 36 131 31 25 111 22 178 -7z m-2349 -823 c149 -159 230 -301 230 -405 0 -50 -22 -50 -69 0 -47 49 -176 244 -251 380 -8 15 -31 52 -50 82 -19 30 -42 72 -51 92 -18 37 -18 37 54 -21 40 -32 101 -90 137 -128z m-1101 137 c36 -17 80 -42 98 -56 51 -39 117 -134 136 -195 36 -117 14 -280 -48 -353 -33 -39 -33 -39 -72 -8 -44 35 -108 109 -134 156 -67 119 -135 288 -149 369 -5 28 -14 69 -19 91 -10 39 -10 39 56 33 42 -4 90 -18 132 -37z m-562 10 c28 -10 33 -18 39 -56 12 -84 -22 -214 -78 -294 -40 -58 -110 -125 -171 -162 -47 -30 -47 -30 -66 -6 -36 43 -71 167 -71 248 0 88 37 205 72 232 61 47 101 60 173 54 39 -2 84 -10 102 -16z m129 -105 c21 -40 34 -45 35 -12 0 13 23 -25 57 -93 32 -63 72 -135 89 -160 37 -54 158 -178 204 -211 19 -13 42 -31 52 -40 10 -9 33 -25 53 -35 19 -10 33 -23 31 -29 -11 -32 -154 -76 -297 -90 -91 -9 -236 10 -360 47 -44 13 -167 88 -197 120 -23 24 -23 24 34 63 91 64 159 141 205 234 38 75 42 92 46 172 5 97 11 102 48 34z m4679 -238 c88 -17 108 -28 140 -75 34 -50 32 -87 -5 -122 -33 -31 -67 -40 -153 -40 -96 0 -298 90 -427 192 -34 27 -34 27 -9 32 112 23 363 30 454 13z"/>
 <path d="M650 2554 c-93 -36 -158 -98 -182 -174 -51 -160 -50 -191 1 -405 4 -19 14 -31 27 -33 18 -3 21 6 31 101 16 143 35 181 108 220 54 30 211 31 300 3 89 -28 258 -115 285 -146 3 -3 21 -16 41 -28 61 -37 243 -193 303 -260 17 -19 65 -50 156 -100 32 -18 116 -26 173 -18 34 5 56 17 86 46 50 48 54 66 49 183 -4 99 -29 169 -61 175 -15 3 -17 -8 -17 -79 0 -73 -3 -86 -26 -116 -39 -51 -76 -66 -154 -61 -60 3 -74 8 -136 50 -70 47 -107 81 -257 239 -137 144 -341 312 -405 333 -15 5 -39 17 -54 27 -14 11 -32 19 -40 19 -8 0 -19 5 -25 11 -12 12 -178 23 -203 13z"/>
 <path d="M8106 2018 c4 -13 17 -39 29 -58 12 -19 33 -57 47 -85 14 -27 43 -84 65 -125 22 -41 57 -106 77 -145 21 -38 50 -90 65 -115 14 -25 33 -57 41 -72 49 -89 182 -297 287 -448 41 -59 150 -189 200 -238 79 -78 138 -112 191 -112 74 0 82 10 82 94 0 68 -4 82 -44 162 -25 49 -58 105 -73 124 -28 34 -225 233 -273 275 -35 30 -156 115 -165 115 -13 0 -65 41 -65 52 0 6 15 -1 34 -15 18 -14 60 -40 93 -56 102 -52 181 -38 199 34 9 37 -20 129 -61 196 -19 31 -35 59 -35 62 0 2 -34 55 -75 117 -41 62 -75 115 -75 118 0 3 -7 13 -15 22 -13 14 -13 19 -2 28 31 26 152 -71 289 -230 20 -24 54 -63 76 -88 21 -25 41 -50 43 -56 2 -7 22 -32 45 -56 105 -113 213 -170 337 -176 92 -5 126 7 162 54 59 77 70 155 35 246 -11 29 -20 54 -20 55 0 13 120 -60 191 -116 56 -44 56 -44 52 -106 -6 -67 8 -107 55 -157 20 -22 35 -28 69 -28 37 0 45 4 55 25 8 18 8 35 1 60 -6 19 -9 35 -6 35 3 0 32 -18 65 -40 35 -23 72 -40 88 -40 36 0 80 50 80 91 0 32 -33 103 -86 187 -19 29 -34 55 -34 59 0 3 -18 34 -40 69 -22 35 -40 67 -40 71 0 4 -12 24 -26 44 -16 24 -24 47 -22 66 3 27 5 28 59 27 51 -1 63 -6 115 -47 68 -52 131 -116 199 -202 26 -33 51 -62 55 -65 3 -3 12 -19 19 -37 7 -18 46 -65 87 -106 95 -95 190 -138 325 -145 80 -4 87 -3 114 21 33 28 18 44 137 -152 18 -29 49 -74 68 -100 19 -26 40 -54 45 -63 27 -42 145 -188 199 -246 34 -35 94 -86 135 -113 62 -41 81 -49 121 -49 63 0 80 19 80 93 0 48 -7 70 -46 144 -25 49 -59 102 -75 118 -16 17 -29 36 -29 41 0 16 -223 238 -298 296 -71 56 -85 66 -142 97 -39 22 -38 20 -111 157 -151 287 -178 356 -146 382 32 27 227 -108 227 -157 0 -20 43 -61 65 -61 7 0 48 -39 91 -87 44 -48 89 -96 100 -107 18 -18 22 -36 26 -116 6 -142 42 -200 120 -200 68 0 76 52 24 152 -24 45 -32 68 -25 79 5 8 20 49 34 92 28 88 32 166 11 245 -16 62 -11 64 62 29 128 -62 219 -155 307 -309 9 -16 22 -28 30 -28 23 0 18 43 -8 81 -13 19 -36 52 -51 74 -14 22 -60 74 -102 116 -64 66 -86 81 -154 108 -43 17 -88 31 -98 31 -10 0 -32 12 -48 26 -82 73 -99 79 -219 79 -124 0 -138 -6 -162 -63 -13 -31 -14 -32 -41 -18 -16 8 -35 22 -43 32 -24 29 -91 54 -147 54 -77 0 -118 -20 -143 -72 -21 -44 -21 -44 -74 11 -54 56 -54 56 -129 56 -65 0 -78 -3 -100 -24 -43 -40 -66 -100 -66 -171 0 -63 0 -63 -72 12 -117 121 -209 175 -315 183 -81 7 -110 -5 -135 -55 -35 -68 -18 -162 50 -285 83 -150 103 -188 99 -192 -3 -2 -18 8 -35 22 -17 14 -46 32 -64 40 -19 7 -41 21 -49 31 -16 19 -149 110 -199 136 -19 10 -52 24 -72 30 -22 6 -47 25 -64 47 -36 47 -132 138 -164 156 -101 57 -135 67 -222 69 -83 1 -88 0 -117 -28 -49 -47 -71 -102 -71 -182 -1 -56 -3 -65 -12 -49 -18 32 -188 197 -237 230 -39 26 -53 30 -116 30 -83 0 -100 -10 -115 -65 -12 -44 5 -111 42 -168 193 -297 228 -356 216 -368 -4 -3 -26 5 -50 17 -116 59 -161 118 -301 389 -38 74 -81 148 -95 163 -24 26 -31 27 -77 22 -42 -6 -55 -3 -77 14 -35 28 -51 27 -42 -1z m1090 -73 c41 -24 107 -99 152 -175 21 -34 21 -34 -26 -60 -46 -25 -47 -26 -50 -78 -2 -31 2 -60 9 -68 14 -17 80 -19 97 -2 22 22 14 66 -14 81 -27 14 -27 14 -5 36 39 39 47 30 91 -115 35 -113 38 -159 11 -173 -28 -16 -80 4 -124 46 -71 69 -180 252 -217 366 -19 59 -27 147 -13 160 13 14 47 7 89 -18z m1440 -13 c21 -20 56 -62 76 -92 21 -30 52 -75 70 -100 55 -77 123 -192 148 -252 23 -56 23 -58 5 -78 -29 -32 -75 -26 -128 18 -43 35 -137 143 -137 157 0 3 -11 21 -24 38 -47 62 -119 220 -124 269 -8 87 46 106 114 40z m699 -62 c11 -5 16 -9 10 -9 -5 -1 -26 -15 -45 -31 -40 -35 -73 -36 -78 -3 -5 38 64 64 113 43z m95 -106 c22 -44 31 -149 15 -174 -4 -7 -23 7 -50 37 -24 26 -60 65 -79 87 -36 38 -36 38 17 76 59 43 65 42 97 -26z m-1490 -339 c28 -41 40 -85 22 -85 -21 0 -62 58 -68 99 -8 53 2 50 46 -14z m1599 -74 c13 -41 14 -71 2 -71 -12 0 -31 56 -31 93 0 36 12 27 29 -22z m-290 -66 c20 -16 81 -74 136 -130 159 -160 245 -302 245 -406 0 -71 -35 -61 -107 34 -26 34 -53 68 -60 75 -7 7 -13 19 -13 26 0 8 -7 19 -15 26 -8 6 -36 47 -62 91 -105 175 -134 224 -157 268 -10 20 -25 45 -35 55 -15 18 -15 18 8 5 14 -8 41 -27 60 -44z m-2544 -19 c198 -155 375 -408 375 -537 0 -29 -4 -39 -16 -39 -15 0 -104 81 -104 95 0 3 -18 30 -40 59 -22 29 -40 55 -40 59 0 3 -18 33 -40 66 -22 33 -40 63 -40 66 0 4 -13 25 -29 48 -15 23 -40 65 -55 92 -15 28 -38 68 -51 90 -23 37 -36 75 -17 50 4 -5 30 -28 57 -49z"/>
 <path d="M350 1906 c-172 -48 -254 -142 -267 -304 -3 -44 -1 -100 6 -130 29 -137 139 -292 296 -417 38 -30 50 -39 121 -86 107 -70 315 -179 343 -179 21 0 12 49 -11 61 -13 7 -87 54 -165 106 -190 125 -297 233 -366 368 -26 52 -57 157 -57 195 0 101 72 198 182 247 54 23 191 45 257 40 91 -6 232 -27 256 -37 11 -5 30 -12 43 -15 33 -9 90 -67 98 -99 3 -15 3 -46 0 -69 -14 -81 -14 -82 22 -85 28 -3 40 4 78 41 64 64 60 101 -19 184 -46 48 -199 127 -267 138 -25 4 -52 11 -61 16 -62 32 -399 50 -489 25z"/>
 <path d="M612 1722 c-48 -33 -115 -118 -134 -171 -8 -21 -13 -82 -13 -146 0 -95 4 -116 23 -156 65 -127 198 -238 337 -281 133 -41 137 -41 385 -42 240 0 278 3 444 40 51 11 64 11 100 -3 22 -9 45 -20 51 -25 5 -4 18 -8 28 -8 10 0 31 -6 45 -14 42 -23 133 -62 173 -75 30 -10 35 -15 32 -35 -5 -24 21 -85 41 -98 24 -16 108 -8 143 13 31 20 35 20 58 5 14 -9 29 -33 35 -55 12 -44 23 -142 14 -123 -3 6 -16 12 -29 12 -30 0 -49 -32 -41 -67 6 -20 12 -24 39 -21 26 2 33 8 37 32 5 28 5 28 21 -8 17 -36 17 -36 -12 -36 -22 0 -30 -6 -35 -26 -15 -60 45 -104 67 -48 5 15 7 36 3 47 -5 17 -2 16 21 -7 33 -33 47 -30 57 15 5 27 2 42 -18 72 -21 31 -26 56 -33 150 -9 115 -25 167 -58 186 -15 8 -17 26 -18 118 0 101 -2 112 -32 173 -51 103 -119 171 -225 226 -67 35 -271 71 -338 60 -39 -6 -40 -6 -64 41 -29 57 -61 93 -82 93 -21 0 -13 -36 23 -105 84 -160 132 -259 128 -263 -3 -3 -23 7 -45 22 -22 14 -42 26 -45 26 -3 0 -29 15 -58 34 -48 31 -71 45 -196 117 -42 25 -47 31 -57 84 -14 68 -52 145 -72 145 -10 0 -12 -6 -7 -22 3 -13 9 -44 12 -70 10 -90 -73 -181 -167 -182 -52 -1 -137 38 -146 67 -3 9 -12 17 -20 17 -41 0 14 -128 71 -166 56 -37 207 -36 244 1 12 12 18 12 40 0 14 -7 53 -27 86 -43 33 -16 104 -53 159 -81 54 -28 102 -51 107 -51 5 0 30 -13 57 -30 26 -16 42 -30 35 -30 -6 0 -15 5 -19 11 -7 12 -49 9 -164 -11 -183 -31 -528 -37 -596 -9 -176 71 -270 147 -330 265 -37 74 -39 81 -38 168 1 74 7 108 32 182 18 50 32 96 32 103 0 20 -44 11 -88 -17z m848 -399 c3 -3 -9 1 -26 10 -17 9 -37 23 -44 33 -12 14 55 -27 70 -43z m496 -1 c68 -15 172 -76 216 -127 53 -62 104 -214 78 -230 -8 -5 -115 58 -130 76 -5 7 -67 51 -135 97 -106 72 -146 106 -169 147 -14 24 -26 47 -26 52 0 10 86 2 166 -15z m-551 -22 c17 -11 58 -35 93 -52 74 -37 96 -59 25 -26 -78 37 -179 98 -163 98 8 0 29 -9 45 -20z m90 10 c3 -6 -1 -7 -9 -4 -18 7 -21 14 -7 14 6 0 13 -4 16 -10z m55 -36 c0 -2 -9 0 -20 6 -11 6 -20 13 -20 16 0 2 9 0 20 -6 11 -6 20 -13 20 -16z m85 -44 c3 -5 4 -10 1 -10 -3 0 -8 5 -11 10 -3 6 -4 10 -1 10 3 0 8 -4 11 -10z m30 -20 c3 -5 4 -10 1 -10 -3 0 -8 5 -11 10 -3 6 -4 10 -1 10 3 0 8 -4 11 -10z m-45 -36 c0 -2 -9 0 -20 6 -11 6 -20 13 -20 16 0 2 9 0 20 -6 11 -6 20 -13 20 -16z m40 -14 c8 -5 11 -10 5 -10 -5 0 -17 5 -25 10 -8 5 -10 10 -5 10 6 0 17 -5 25 -10z m60 -36 c0 -2 -9 0 -20 6 -11 6 -20 13 -20 16 0 2 9 0 20 -6 11 -6 20 -13 20 -16z m105 -112 c-3 -3 -11 0 -18 7 -9 10 -8 11 6 5 10 -3 15 -9 12 -12z m32 -9 c-4 -3 -10 -3 -14 0 -3 4 0 7 7 7 7 0 10 -3 7 -7z m28 -13 c3 -5 4 -10 1 -10 -3 0 -8 5 -11 10 -3 6 -4 10 -1 10 3 0 8 -4 11 -10z"/>
 <path d="M1147 843 c-4 -3 -7 -44 -7 -90 0 -104 18 -153 54 -153 20 0 31 10 50 48 46 89 126 143 182 122 43 -17 112 -101 139 -170 47 -122 29 -223 -47 -270 -49 -30 -194 -29 -254 2 -99 49 -191 155 -269 308 -21 41 -44 87 -52 103 -17 33 -43 36 -43 5 0 -35 54 -178 96 -254 84 -154 169 -251 272 -312 45 -26 53 -27 182 -27 148 0 172 8 231 72 59 65 65 215 13 348 -36 91 -153 224 -227 255 -47 20 -56 21 -100 10 -57 -14 -100 -35 -117 -55 -22 -26 -44 -17 -63 25 -16 39 -27 47 -40 33z"/>
 <path d="M2457 843 c-12 -11 -8 -68 5 -81 35 -35 82 14 60 63 -11 24 -49 35 -65 18z"/>
 <path d="M2472 708 c-19 -19 -14 -65 9 -81 13 -9 16 -17 10 -22 -12 -7 -15 -44 -5 -69 7 -19 45 -21 62 -4 18 18 14 56 -8 78 -11 11 -15 22 -10 25 14 9 12 59 -2 73 -7 7 -19 12 -28 12 -9 0 -21 -5 -28 -12z"/>
 <path d="M2291 666 c-7 -8 -11 -30 -9 -48 3 -29 7 -33 35 -36 28 -3 33 1 39 23 14 54 -34 99 -65 61z"/>
 </g>
<g id="layer102" fill="#020202" stroke="none">
 <path d="M1547 3034 c-110 -34 -117 -153 -20 -362 133 -287 184 -433 186 -524 2 -98 -30 -126 -105 -93 -31 13 -21 -32 15 -71 27 -30 40 -36 88 -41 223 -23 218 243 -12 607 -29 47 -70 118 -91 159 -56 107 -52 125 31 175 119 73 122 167 5 165 -27 0 -71 -7 -97 -15z"/>
 <path d="M700 2553 c-73 -10 -92 -17 -140 -55 -93 -77 -145 -235 -121 -374 21 -120 43 -185 60 -182 12 2 17 17 19 53 8 160 42 238 118 274 61 29 212 29 304 1 167 -52 370 -187 582 -387 96 -90 206 -157 275 -168 64 -9 137 11 177 49 44 41 60 100 52 191 -7 72 -43 164 -61 155 -5 -3 -10 -32 -10 -65 -1 -94 -3 -102 -35 -138 -49 -57 -133 -71 -220 -38 -71 27 -116 64 -295 246 -147 149 -253 246 -293 269 -9 5 -36 25 -61 43 -50 38 -157 95 -211 111 -42 12 -106 19 -140 15z"/>
 <path d="M430 1914 c-174 -29 -248 -72 -306 -177 -27 -49 -29 -59 -29 -173 0 -119 0 -121 39 -200 44 -90 123 -192 199 -257 157 -134 496 -331 523 -304 15 14 -9 35 -106 96 -144 90 -288 200 -335 257 -109 133 -155 230 -162 346 -5 70 -3 83 21 132 42 85 141 147 268 167 140 22 397 -9 482 -59 16 -9 37 -31 47 -47 19 -33 24 -110 10 -149 -7 -18 -6 -28 4 -36 19 -16 50 -4 96 37 33 30 39 42 39 74 0 93 -161 202 -373 253 -128 31 -347 52 -417 40z"/>
 <path d="M600 1706 c-55 -40 -115 -139 -131 -215 -13 -62 -7 -148 15 -211 49 -141 219 -279 401 -323 100 -25 280 -40 378 -33 159 11 279 24 372 41 90 17 90 17 270 -57 180 -73 180 -73 183 -113 5 -60 34 -85 96 -85 32 0 62 7 81 19 28 17 32 17 57 3 32 -18 46 -53 54 -131 7 -60 64 -178 91 -188 36 -14 44 53 12 96 -17 24 -23 51 -29 144 -9 121 -22 161 -64 194 -23 18 -24 23 -14 67 14 66 2 142 -33 216 -87 184 -246 276 -496 287 -112 5 -112 5 -132 47 -33 66 -92 120 -91 84 0 -7 40 -89 88 -183 88 -170 88 -170 210 -251 108 -71 182 -126 110 -81 -15 9 -42 25 -60 36 -47 26 -355 211 -418 251 -8 5 -49 30 -91 55 -76 45 -76 45 -82 100 -6 57 -42 135 -62 135 -9 0 -8 -12 2 -44 19 -57 4 -113 -44 -166 -64 -72 -165 -77 -248 -15 -49 38 -63 33 -42 -17 49 -116 177 -164 291 -108 47 22 47 22 259 -85 117 -59 283 -143 370 -187 87 -44 157 -82 154 -84 -4 -4 -94 36 -260 116 -50 24 -74 30 -95 25 -51 -13 -214 -35 -347 -47 -181 -16 -298 -3 -420 49 -261 109 -362 331 -271 596 15 40 26 79 26 85 0 22 -45 11 -90 -22z m925 -408 c72 -42 171 -100 220 -130 50 -30 111 -67 138 -82 26 -15 47 -29 47 -32 0 -6 -11 0 -225 121 -99 56 -200 113 -225 127 -97 55 -110 63 -110 77 0 9 4 10 13 4 6 -6 71 -44 142 -85z m416 33 c183 -47 301 -168 316 -327 3 -35 3 -64 -1 -64 -5 0 -20 9 -34 21 -15 12 -83 61 -152 110 -69 49 -149 105 -178 126 -33 24 -64 57 -83 89 -16 28 -29 54 -29 58 0 12 87 5 161 -13z m-497 -46 c43 -25 80 -45 81 -45 2 0 45 -24 97 -53 51 -30 133 -75 181 -101 104 -56 113 -72 12 -20 -211 108 -461 237 -468 241 -8 5 0 23 11 23 4 0 42 -20 86 -45z m511 -245 c3 -5 4 -10 1 -10 -3 0 -8 5 -11 10 -3 6 -4 10 -1 10 3 0 8 -4 11 -10z m5 -41 c24 -19 24 -19 -17 1 -24 11 -43 22 -43 24 0 9 37 -6 60 -25z m55 11 c3 -6 -1 -7 -9 -4 -18 7 -21 14 -7 14 6 0 13 -4 16 -10z m85 -16 c0 -2 -9 0 -20 6 -11 6 -20 13 -20 16 0 2 9 0 20 -6 11 -6 20 -13 20 -16z m25 -14 c3 -5 4 -10 1 -10 -3 0 -8 5 -11 10 -3 6 -4 10 -1 10 3 0 8 -4 11 -10z m-40 -50 c3 -5 4 -10 1 -10 -3 0 -8 5 -11 10 -3 6 -4 10 -1 10 3 0 8 -4 11 -10z m10 -48 c-3 -3 -11 0 -18 7 -9 10 -8 11 6 5 10 -3 15 -9 12 -12z m65 -22 c13 -8 13 -10 -2 -10 -9 0 -20 5 -23 10 -8 13 5 13 25 0z"/>
 <path d="M2466 834 c-20 -19 -20 -44 -2 -70 30 -39 78 24 50 65 -18 25 -27 26 -48 5z"/>
 <path d="M1144 814 c-9 -37 1 -154 17 -187 18 -40 47 -32 76 23 30 57 59 87 105 111 62 32 85 26 149 -39 72 -74 102 -147 103 -249 1 -85 -16 -116 -84 -150 -63 -33 -175 -32 -245 1 -109 50 -182 139 -301 365 -66 126 -91 100 -33 -34 5 -11 15 -39 23 -61 8 -23 25 -59 38 -80 14 -22 27 -47 31 -57 15 -41 90 -137 148 -192 87 -80 152 -109 256 -113 246 -11 349 127 277 375 -34 115 -171 279 -256 305 -50 15 -112 0 -181 -42 -27 -17 -51 -30 -55 -30 -4 0 -16 18 -26 40 -22 47 -33 50 -42 14z"/>
 <path d="M2468 695 c-9 -19 -8 -29 6 -50 14 -21 20 -24 36 -15 25 13 28 75 4 84 -26 10 -34 7 -46 -19z"/>
 <path d="M2303 668 c-28 -36 -18 -88 17 -88 32 0 47 43 26 75 -18 28 -29 31 -43 13z"/>
 <path d="M2492 598 c-30 -30 1 -93 36 -71 11 6 17 23 17 44 0 26 -4 35 -20 37 -11 1 -26 -3 -33 -10z"/>
 <path d="M2321 546 c-7 -8 -11 -27 -9 -43 2 -22 9 -29 30 -31 23 -3 29 2 34 24 12 46 -28 82 -55 50z"/>
 <path d="M2361 438 c-11 -29 -3 -56 19 -68 29 -15 54 28 39 68 -11 29 -47 29 -58 0z"/>
 </g>

</svg>